<?xml version="1.0" encoding="UTF-8"?>
<svg version="1.1" xmlns="http://www.w3.org/2000/svg" width="1080" height="1080">
<path d="M0 0 C4.02343504 0.70780122 8.05029487 1.36525424 12.08990479 1.97361755 C43.80220952 6.79661243 73.37472089 16.32442431 102.74224854 28.99705505 C102.74224854 29.65705505 102.74224854 30.31705505 102.74224854 30.99705505 C103.58787354 31.22393005 104.43349854 31.45080505 105.30474854 31.68455505 C109.24611709 33.18944123 112.62986713 35.1240876 115.74224854 37.99705505 C115.74224854 38.65705505 115.74224854 39.31705505 115.74224854 39.99705505 C116.57756104 40.33736755 116.57756104 40.33736755 117.42974854 40.68455505 C126.89895574 46.05896995 134.46961254 58.1685321 137.55474854 68.37205505 C137.96782278 69.90919194 138.36515444 71.45069798 138.74224854 72.99705505 C139.00026245 73.93508972 139.00026245 73.93508972 139.26348877 74.89207458 C142.6373313 89.72597072 138.3122967 104.80502158 131.74224854 117.99705505 C131.08224854 117.99705505 130.42224854 117.99705505 129.74224854 117.99705505 C129.30912354 119.38924255 129.30912354 119.38924255 128.86724854 120.80955505 C127.74224854 123.99705505 127.74224854 123.99705505 125.74224854 126.99705505 C125.38398421 129.28469768 125.12651877 131.5886785 124.92584229 133.89549255 C124.86445572 134.56746674 124.80306915 135.23944092 124.73982239 135.93177795 C124.54509733 138.07790861 124.3618927 140.22482323 124.17974854 142.37205505 C123.9920292 144.51191092 123.80186839 146.65151427 123.60896301 148.79090881 C123.43442324 150.73730144 123.2667469 152.6843059 123.09942627 154.6313324 C122.79656309 157.48524338 122.32580999 160.19232745 121.74224854 162.99705505 C121.56348946 164.51527377 121.40899502 166.03652292 121.27740479 167.55955505 C121.16223511 168.86388489 121.16223511 168.86388489 121.04473877 170.19456482 C120.96554199 171.1193866 120.88634521 172.04420837 120.80474854 172.99705505 C120.630599 174.96453217 120.45611072 176.93197934 120.28131104 178.8993988 C120.19268799 179.90470642 120.10406494 180.91001404 120.01275635 181.94578552 C119.58079503 186.81821568 119.13429916 191.6891851 118.67974854 196.55955505 C118.60055176 197.4328949 118.52135498 198.30623474 118.4397583 199.20603943 C118.06487616 203.20583129 117.54643545 207.05909213 116.74224854 210.99705505 C116.44696339 213.66339219 116.17821835 216.32635465 115.92974854 218.99705505 C114.77329605 231.00035504 113.45724548 242.9858995 112.15118408 254.97361755 C112.02347626 256.1476564 112.02347626 256.1476564 111.89318848 257.34541321 C111.733997 258.80829029 111.57440704 260.27112409 111.41430664 261.73390198 C111.00915576 265.45480547 110.62393404 269.17685124 110.25811768 272.90184021 C109.76103309 277.90477338 109.18304644 282.89582174 108.58599854 287.88768005 C108.36580767 289.75094491 108.1457601 291.6142267 107.92584229 293.4775238 C107.58502693 296.35807371 107.24327123 299.23849962 106.89898682 302.11863708 C105.70446002 312.12558398 104.57569452 322.09813534 103.93511963 332.15769958 C103.69206373 335.73585163 103.2789863 339.25473146 102.80474854 342.80955505 C102.62854332 344.1701773 102.45277638 345.53085636 102.27740479 346.8915863 C102.18862061 347.57172791 102.09983643 348.25186951 102.00836182 348.95262146 C100.4950653 360.57862609 99.33378961 372.19666444 98.43951416 383.88768005 C98.36281494 384.86736755 98.28611572 385.84705505 98.20709229 386.85643005 C98.14126953 387.72751404 98.07544678 388.59859802 98.00762939 389.49607849 C97.74224854 391.99705505 97.74224854 391.99705505 97.25471497 394.35142517 C96.76903673 396.85875985 96.48300362 399.28410723 96.27740479 401.82810974 C96.200625 402.75967896 96.12384521 403.69124817 96.04473877 404.65104675 C95.96554199 405.64694824 95.88634521 406.64284973 95.80474854 407.66893005 C95.71975098 408.70592041 95.63475342 409.74291077 95.54718018 410.81132507 C95.27611661 414.12301748 95.00894532 417.43500836 94.74224854 420.74705505 C94.47499658 424.04477051 94.20688669 427.34241154 93.93731689 430.63993835 C93.76998743 432.68893126 93.60405504 434.73803891 93.4397583 436.78727722 C93.02802431 441.85046044 92.55391283 446.89766317 91.97439575 451.94438171 C91.31396548 457.78398481 90.82714002 463.64367773 90.30474854 469.49705505 C90.23877472 470.23437866 90.1728009 470.97170227 90.10482788 471.73136902 C89.11728303 482.85298737 88.31903393 493.97526329 87.67974854 505.12205505 C87.12363839 514.79646628 86.53428146 524.46345888 85.74224854 534.12205505 C85.67126953 535.01424744 85.60029053 535.90643982 85.52716064 536.82566833 C85.09216815 541.94339566 84.47712128 547.01175476 83.76568604 552.09861755 C82.72885491 559.69853223 82.0993839 567.29589208 81.53759766 574.94355774 C80.41852918 590.0758414 78.93083307 605.13689193 77.10015869 620.19920349 C76.32747969 626.59710699 75.63882232 632.97481619 75.21881104 639.4072113 C74.86152847 644.84940415 74.19755785 650.13167559 73.24224854 655.49705505 C72.31857941 660.98270849 71.55669021 666.37286792 71.24224854 671.93455505 C70.86843508 678.48773374 69.91164421 684.87569187 68.89630127 691.3525238 C68.06502545 696.70483503 67.36161215 702.04715043 66.80474854 707.43455505 C65.57537618 719.18174239 63.87333639 730.86657787 62.22271729 742.56053162 C61.80097044 745.57705023 61.39263674 748.59483147 60.99224854 751.61424255 C57.50150178 777.65032183 53.59838924 804.21008277 39.74224854 826.99705505 C39.06018269 828.16309283 38.37922922 829.32978187 37.69927979 830.49705505 C34.47650431 835.93497401 31.33384232 840.59376007 26.74224854 844.99705505 C25.56147922 846.31791565 24.39345993 847.65035493 23.24224854 848.99705505 C10.49195985 863.9124871 -4.32973785 874.50275332 -21.25775146 883.99705505 C-22.53198975 884.71828552 -22.53198975 884.71828552 -23.83197021 885.4540863 C-49.81728423 899.35115577 -80.39288674 900.66676459 -108.24945068 892.62400818 C-116.68914227 889.98929775 -124.64920781 886.49433436 -132.25775146 881.99705505 C-132.25775146 881.33705505 -132.25775146 880.67705505 -132.25775146 879.99705505 C-132.95900146 879.74955505 -133.66025146 879.50205505 -134.38275146 879.24705505 C-140.298379 876.67504308 -146.42506518 872.7702327 -149.32025146 866.80955505 C-150.10558333 864.84696747 -150.10558333 864.84696747 -152.07025146 864.12205505 C-165.17696218 857.38146097 -173.75314924 834.11835093 -178.25775146 820.99705505 C-179.0370445 818.39122232 -179.7003875 815.77001764 -180.32025146 813.12205505 C-180.49016602 812.39953552 -180.66008057 811.67701599 -180.83514404 810.93260193 C-182.52343989 803.39160117 -183.35073126 795.79998856 -184.05609131 788.11424255 C-184.263494 785.9367654 -184.50056076 783.7643043 -184.74603271 781.59080505 C-185.75682523 772.5932055 -186.57881263 763.5831403 -187.32025146 754.55955505 C-187.41113037 753.5044574 -187.50200928 752.44935974 -187.59564209 751.36228943 C-188.08232696 745.41595167 -188.31591342 739.55038746 -188.25946045 733.58518982 C-188.25683377 729.60727467 -188.50965247 725.65329789 -188.75775146 721.68455505 C-189.67039789 705.40637724 -188.99116715 689.27177756 -188.25775146 672.99705505 C-188.21505127 672.03203064 -188.17235107 671.06700623 -188.12835693 670.07273865 C-187.37619467 653.26264942 -187.37619467 653.26264942 -186.43743896 645.0556488 C-186.25550627 642.9713329 -186.26574747 640.96267256 -186.32025146 638.87205505 C-186.36677328 634.33617805 -185.7898736 629.96167921 -185.17767334 625.47239685 C-184.25015814 618.4347964 -183.63747209 611.37218243 -183.00906372 604.30302429 C-182.01068414 593.10122799 -180.85648075 581.99116772 -178.90618896 570.9072113 C-178.44776821 568.1428789 -178.07265062 565.44904148 -177.78509521 562.66893005 C-177.23580714 557.4657043 -176.34027386 552.33774047 -175.44525146 547.18455505 C-173.29409386 534.552562 -171.49325872 521.87963714 -169.71038818 509.19139099 C-168.33866227 499.51088299 -166.85478195 489.84660617 -165.35931396 480.18455505 C-163.46773167 467.96187538 -161.61553969 455.73422643 -159.82025146 443.49705505 C-159.71586761 442.78555298 -159.61148376 442.0740509 -159.50393677 441.34098816 C-158.7539626 436.22652595 -158.00568072 431.11181665 -157.25775146 425.99705505 C-156.40472139 420.16355485 -155.5509812 414.33015991 -154.69525146 408.49705505 C-154.59060577 407.78363953 -154.48596008 407.070224 -154.37814331 406.33518982 C-152.88764692 396.18303058 -151.35044782 386.03881433 -149.77703857 375.89915466 C-148.39452355 366.95879862 -147.07016055 358.01041146 -145.75775146 349.05955505 C-145.65223969 348.34015747 -145.54672791 347.62075989 -145.4380188 346.87956238 C-144.91316026 343.30013484 -144.38879332 339.72063549 -143.86468506 336.14109802 C-142.93626938 329.80096459 -142.00496688 323.4612629 -141.07025146 317.12205505 C-140.83822021 315.53856262 -140.83822021 315.53856262 -140.60150146 313.92308044 C-139.86225512 308.91508826 -139.08450725 303.91783064 -138.23822021 298.92674255 C-137.2893367 293.29764819 -136.50161565 287.6563859 -135.75775146 281.99705505 C-134.87087191 275.36818468 -133.9201031 268.76750796 -132.78118896 262.17674255 C-132.09015442 257.97896554 -131.48327461 253.77112387 -130.88275146 249.55955505 C-130.7584375 248.68774597 -130.63412354 247.81593689 -130.50604248 246.91770935 C-129.73246301 241.45072854 -128.98327587 235.98077181 -128.24603271 230.5087738 C-128.07184814 229.22349792 -127.89766357 227.93822205 -127.71820068 226.61399841 C-127.37658521 224.08792585 -127.03822584 221.56141022 -126.70355225 219.03440857 C-125.93461245 213.35401219 -125.04227458 207.80048395 -123.7243042 202.22361755 C-122.7841125 197.73667446 -122.34509285 193.17264336 -121.82025146 188.62205505 C-119.81993286 172.05951793 -117.05655426 155.69291059 -114.09857178 139.27610779 C-112.7743003 131.92399698 -111.49063739 124.56797686 -110.28778076 117.1950531 C-109.69436772 113.56911545 -109.07361671 109.95073459 -108.41009521 106.3368988 C-108.1995752 105.18290588 -108.1995752 105.18290588 -107.98480225 104.00559998 C-107.71819851 102.55309635 -107.44738294 101.10135612 -107.17132568 99.65061951 C-106.09846633 93.79032381 -105.40291613 88.98933701 -108.13275146 83.55955505 C-114.54159954 70.67064947 -114.55347082 56.16990967 -110.51165771 42.6181488 C-108.84745372 37.81217652 -106.79719656 33.39624246 -104.25775146 28.99705505 C-103.76275146 28.00705505 -103.76275146 28.00705505 -103.25775146 26.99705505 C-102.59775146 26.99705505 -101.93775146 26.99705505 -101.25775146 26.99705505 C-101.03087646 26.44018005 -100.80400146 25.88330505 -100.57025146 25.30955505 C-98.89352574 22.35532402 -96.71656193 20.28629239 -94.25775146 17.99705505 C-93.65189209 17.38603943 -93.04603271 16.7750238 -92.42181396 16.14549255 C-67.50022077 -7.84964736 -31.31130566 -5.51788255 0 0 Z " fill="#BBD3E6" transform="translate(545.2577514648438,137.00294494628906)"/>
<path d="M0 0 C4.02343504 0.70780122 8.05029487 1.36525424 12.08990479 1.97361755 C43.80220952 6.79661243 73.37472089 16.32442431 102.74224854 28.99705505 C102.74224854 29.65705505 102.74224854 30.31705505 102.74224854 30.99705505 C103.58787354 31.22393005 104.43349854 31.45080505 105.30474854 31.68455505 C109.24611709 33.18944123 112.62986713 35.1240876 115.74224854 37.99705505 C115.74224854 38.65705505 115.74224854 39.31705505 115.74224854 39.99705505 C116.57756104 40.33736755 116.57756104 40.33736755 117.42974854 40.68455505 C126.89895574 46.05896995 134.46961254 58.1685321 137.55474854 68.37205505 C137.96782278 69.90919194 138.36515444 71.45069798 138.74224854 72.99705505 C139.00026245 73.93508972 139.00026245 73.93508972 139.26348877 74.89207458 C142.6373313 89.72597072 138.3122967 104.80502158 131.74224854 117.99705505 C131.08224854 117.99705505 130.42224854 117.99705505 129.74224854 117.99705505 C129.30912354 119.38924255 129.30912354 119.38924255 128.86724854 120.80955505 C127.74224854 123.99705505 127.74224854 123.99705505 125.74224854 126.99705505 C125.38398421 129.28469768 125.12651877 131.5886785 124.92584229 133.89549255 C124.86445572 134.56746674 124.80306915 135.23944092 124.73982239 135.93177795 C124.54509733 138.07790861 124.3618927 140.22482323 124.17974854 142.37205505 C123.9920292 144.51191092 123.80186839 146.65151427 123.60896301 148.79090881 C123.43442324 150.73730144 123.2667469 152.6843059 123.09942627 154.6313324 C122.79656309 157.48524338 122.32580999 160.19232745 121.74224854 162.99705505 C121.56348946 164.51527377 121.40899502 166.03652292 121.27740479 167.55955505 C121.16223511 168.86388489 121.16223511 168.86388489 121.04473877 170.19456482 C120.96554199 171.1193866 120.88634521 172.04420837 120.80474854 172.99705505 C120.630599 174.96453217 120.45611072 176.93197934 120.28131104 178.8993988 C120.19268799 179.90470642 120.10406494 180.91001404 120.01275635 181.94578552 C119.58079503 186.81821568 119.13429916 191.6891851 118.67974854 196.55955505 C118.60055176 197.4328949 118.52135498 198.30623474 118.4397583 199.20603943 C118.06487616 203.20583129 117.54643545 207.05909213 116.74224854 210.99705505 C116.44696339 213.66339219 116.17821835 216.32635465 115.92974854 218.99705505 C114.77329605 231.00035504 113.45724548 242.9858995 112.15118408 254.97361755 C112.02347626 256.1476564 112.02347626 256.1476564 111.89318848 257.34541321 C111.733997 258.80829029 111.57440704 260.27112409 111.41430664 261.73390198 C111.00915576 265.45480547 110.62393404 269.17685124 110.25811768 272.90184021 C109.76103309 277.90477338 109.18304644 282.89582174 108.58599854 287.88768005 C108.36580767 289.75094491 108.1457601 291.6142267 107.92584229 293.4775238 C107.58502693 296.35807371 107.24327123 299.23849962 106.89898682 302.11863708 C105.70446002 312.12558398 104.57569452 322.09813534 103.93511963 332.15769958 C103.69206373 335.73585163 103.2789863 339.25473146 102.80474854 342.80955505 C102.62854332 344.1701773 102.45277638 345.53085636 102.27740479 346.8915863 C102.18862061 347.57172791 102.09983643 348.25186951 102.00836182 348.95262146 C100.4950653 360.57862609 99.33378961 372.19666444 98.43951416 383.88768005 C98.36281494 384.86736755 98.28611572 385.84705505 98.20709229 386.85643005 C98.14126953 387.72751404 98.07544678 388.59859802 98.00762939 389.49607849 C97.74224854 391.99705505 97.74224854 391.99705505 97.25471497 394.35142517 C96.76903673 396.85875985 96.48300362 399.28410723 96.27740479 401.82810974 C96.200625 402.75967896 96.12384521 403.69124817 96.04473877 404.65104675 C95.96554199 405.64694824 95.88634521 406.64284973 95.80474854 407.66893005 C95.71975098 408.70592041 95.63475342 409.74291077 95.54718018 410.81132507 C95.27611661 414.12301748 95.00894532 417.43500836 94.74224854 420.74705505 C94.47499658 424.04477051 94.20688669 427.34241154 93.93731689 430.63993835 C93.76998743 432.68893126 93.60405504 434.73803891 93.4397583 436.78727722 C93.02802431 441.85046044 92.55391283 446.89766317 91.97439575 451.94438171 C91.31396548 457.78398481 90.82714002 463.64367773 90.30474854 469.49705505 C90.23877472 470.23437866 90.1728009 470.97170227 90.10482788 471.73136902 C89.11728303 482.85298737 88.31903393 493.97526329 87.67974854 505.12205505 C87.12363839 514.79646628 86.53428146 524.46345888 85.74224854 534.12205505 C85.67126953 535.01424744 85.60029053 535.90643982 85.52716064 536.82566833 C85.09216815 541.94339566 84.47712128 547.01175476 83.76568604 552.09861755 C82.72885491 559.69853223 82.0993839 567.29589208 81.53759766 574.94355774 C80.41852918 590.0758414 78.93083307 605.13689193 77.10015869 620.19920349 C76.32747969 626.59710699 75.63882232 632.97481619 75.21881104 639.4072113 C74.86152847 644.84940415 74.19755785 650.13167559 73.24224854 655.49705505 C72.31857941 660.98270849 71.55669021 666.37286792 71.24224854 671.93455505 C70.86843508 678.48773374 69.91164421 684.87569187 68.89630127 691.3525238 C68.06502545 696.70483503 67.36161215 702.04715043 66.80474854 707.43455505 C65.57537618 719.18174239 63.87333639 730.86657787 62.22271729 742.56053162 C61.80097044 745.57705023 61.39263674 748.59483147 60.99224854 751.61424255 C57.50150178 777.65032183 53.59838924 804.21008277 39.74224854 826.99705505 C39.06018269 828.16309283 38.37922922 829.32978187 37.69927979 830.49705505 C34.47650431 835.93497401 31.33384232 840.59376007 26.74224854 844.99705505 C25.56147922 846.31791565 24.39345993 847.65035493 23.24224854 848.99705505 C10.49195985 863.9124871 -4.32973785 874.50275332 -21.25775146 883.99705505 C-22.53198975 884.71828552 -22.53198975 884.71828552 -23.83197021 885.4540863 C-49.81728423 899.35115577 -80.39288674 900.66676459 -108.24945068 892.62400818 C-116.68914227 889.98929775 -124.64920781 886.49433436 -132.25775146 881.99705505 C-132.25775146 881.33705505 -132.25775146 880.67705505 -132.25775146 879.99705505 C-132.95900146 879.74955505 -133.66025146 879.50205505 -134.38275146 879.24705505 C-140.298379 876.67504308 -146.42506518 872.7702327 -149.32025146 866.80955505 C-150.10558333 864.84696747 -150.10558333 864.84696747 -152.07025146 864.12205505 C-165.17696218 857.38146097 -173.75314924 834.11835093 -178.25775146 820.99705505 C-179.0370445 818.39122232 -179.7003875 815.77001764 -180.32025146 813.12205505 C-180.49016602 812.39953552 -180.66008057 811.67701599 -180.83514404 810.93260193 C-182.52343989 803.39160117 -183.35073126 795.79998856 -184.05609131 788.11424255 C-184.263494 785.9367654 -184.50056076 783.7643043 -184.74603271 781.59080505 C-185.75682523 772.5932055 -186.57881263 763.5831403 -187.32025146 754.55955505 C-187.41113037 753.5044574 -187.50200928 752.44935974 -187.59564209 751.36228943 C-188.08232696 745.41595167 -188.31591342 739.55038746 -188.25946045 733.58518982 C-188.25683377 729.60727467 -188.50965247 725.65329789 -188.75775146 721.68455505 C-189.67039789 705.40637724 -188.99116715 689.27177756 -188.25775146 672.99705505 C-188.21505127 672.03203064 -188.17235107 671.06700623 -188.12835693 670.07273865 C-187.37619467 653.26264942 -187.37619467 653.26264942 -186.43743896 645.0556488 C-186.25550627 642.9713329 -186.26574747 640.96267256 -186.32025146 638.87205505 C-186.36677328 634.33617805 -185.7898736 629.96167921 -185.17767334 625.47239685 C-184.25015814 618.4347964 -183.63747209 611.37218243 -183.00906372 604.30302429 C-182.01068414 593.10122799 -180.85648075 581.99116772 -178.90618896 570.9072113 C-178.44776821 568.1428789 -178.07265062 565.44904148 -177.78509521 562.66893005 C-177.23580714 557.4657043 -176.34027386 552.33774047 -175.44525146 547.18455505 C-173.29409386 534.552562 -171.49325872 521.87963714 -169.71038818 509.19139099 C-168.33866227 499.51088299 -166.85478195 489.84660617 -165.35931396 480.18455505 C-163.46773167 467.96187538 -161.61553969 455.73422643 -159.82025146 443.49705505 C-159.71586761 442.78555298 -159.61148376 442.0740509 -159.50393677 441.34098816 C-158.7539626 436.22652595 -158.00568072 431.11181665 -157.25775146 425.99705505 C-156.40472139 420.16355485 -155.5509812 414.33015991 -154.69525146 408.49705505 C-154.59060577 407.78363953 -154.48596008 407.070224 -154.37814331 406.33518982 C-152.88764692 396.18303058 -151.35044782 386.03881433 -149.77703857 375.89915466 C-148.39452355 366.95879862 -147.07016055 358.01041146 -145.75775146 349.05955505 C-145.65223969 348.34015747 -145.54672791 347.62075989 -145.4380188 346.87956238 C-144.91316026 343.30013484 -144.38879332 339.72063549 -143.86468506 336.14109802 C-142.93626938 329.80096459 -142.00496688 323.4612629 -141.07025146 317.12205505 C-140.83822021 315.53856262 -140.83822021 315.53856262 -140.60150146 313.92308044 C-139.86225512 308.91508826 -139.08450725 303.91783064 -138.23822021 298.92674255 C-137.2893367 293.29764819 -136.50161565 287.6563859 -135.75775146 281.99705505 C-134.87087191 275.36818468 -133.9201031 268.76750796 -132.78118896 262.17674255 C-132.09015442 257.97896554 -131.48327461 253.77112387 -130.88275146 249.55955505 C-130.7584375 248.68774597 -130.63412354 247.81593689 -130.50604248 246.91770935 C-129.73246301 241.45072854 -128.98327587 235.98077181 -128.24603271 230.5087738 C-128.07184814 229.22349792 -127.89766357 227.93822205 -127.71820068 226.61399841 C-127.37658521 224.08792585 -127.03822584 221.56141022 -126.70355225 219.03440857 C-125.93461245 213.35401219 -125.04227458 207.80048395 -123.7243042 202.22361755 C-122.7841125 197.73667446 -122.34509285 193.17264336 -121.82025146 188.62205505 C-119.81993286 172.05951793 -117.05655426 155.69291059 -114.09857178 139.27610779 C-112.7743003 131.92399698 -111.49063739 124.56797686 -110.28778076 117.1950531 C-109.69436772 113.56911545 -109.07361671 109.95073459 -108.41009521 106.3368988 C-108.1995752 105.18290588 -108.1995752 105.18290588 -107.98480225 104.00559998 C-107.71819851 102.55309635 -107.44738294 101.10135612 -107.17132568 99.65061951 C-106.09846633 93.79032381 -105.40291613 88.98933701 -108.13275146 83.55955505 C-114.54159954 70.67064947 -114.55347082 56.16990967 -110.51165771 42.6181488 C-108.84745372 37.81217652 -106.79719656 33.39624246 -104.25775146 28.99705505 C-103.76275146 28.00705505 -103.76275146 28.00705505 -103.25775146 26.99705505 C-102.59775146 26.99705505 -101.93775146 26.99705505 -101.25775146 26.99705505 C-101.03087646 26.44018005 -100.80400146 25.88330505 -100.57025146 25.30955505 C-98.89352574 22.35532402 -96.71656193 20.28629239 -94.25775146 17.99705505 C-93.65189209 17.38603943 -93.04603271 16.7750238 -92.42181396 16.14549255 C-67.50022077 -7.84964736 -31.31130566 -5.51788255 0 0 Z M-71.75775146 48.80955505 C-75.54596615 54.3340348 -74.98415238 60.50567236 -74.25775146 66.99705505 C-72.62714885 71.44459692 -70.6736238 76.58118272 -67.25775146 79.99705505 C-66.2357749 89.23415092 -67.02455854 103.53066921 -71.25775146 111.99705505 C-71.56293909 113.55320976 -71.82551061 115.11775613 -72.07025146 116.68455505 C-72.90947479 121.91550342 -73.80426779 127.13386537 -74.72528076 132.35105896 C-76.17746515 140.59009131 -77.57295477 148.82116531 -78.71087646 157.1103363 C-81.35811769 175.92465786 -84.45940617 194.68065111 -87.4294281 213.44638062 C-87.67095227 214.97253233 -87.91233707 216.4987061 -88.15357971 218.02490234 C-88.7908692 222.05516308 -89.4312922 226.08489595 -90.0758667 230.11399841 C-90.21081039 230.96071609 -90.34575409 231.80743378 -90.48478699 232.67980957 C-90.7414416 234.2901276 -90.99914504 235.90027898 -91.25813293 237.51022339 C-92.00828042 242.22640783 -92.64254914 246.94107247 -93.19525146 251.68455505 C-93.99661154 258.36923371 -95.06231716 264.98599627 -96.19525146 271.62205505 C-97.46344994 279.06758872 -98.64870985 286.5085785 -99.63275146 293.99705505 C-101.04096827 304.70496962 -102.64554244 315.38088051 -104.25775146 326.05955505 C-106.16474407 338.70358555 -108.05434681 351.34837729 -109.83636475 364.01072693 C-110.80302364 370.86134777 -111.78059252 377.71042526 -112.75775146 384.55955505 C-112.86773468 385.33053528 -112.9777179 386.1015155 -113.09103394 386.89585876 C-114.39590921 396.03708331 -115.714584 405.17569742 -117.0980835 414.30540466 C-118.18919951 421.51022228 -119.25146728 428.71919758 -120.31048584 435.92878723 C-120.63368906 438.12843614 -120.9573942 440.32801073 -121.28118896 442.52757263 C-122.26241659 449.19689133 -123.24053935 455.86660843 -124.20436096 462.53846741 C-126.19259182 476.29942313 -128.22558699 490.04135478 -130.57025146 503.74705505 C-133.03874293 518.23808899 -135.21832239 532.77041348 -137.38275146 547.30955505 C-137.5528775 548.4442926 -137.72300354 549.57903015 -137.89828491 550.74815369 C-140.17088086 565.92917695 -142.19809224 581.12132487 -143.95483398 596.3707428 C-144.2173425 598.64670694 -144.48452218 600.92201554 -144.75531006 603.19700623 C-146.14541484 614.92815423 -147.49985155 626.63413903 -147.96722412 638.44407654 C-148.07941194 641.23328595 -148.24486421 643.92502957 -148.73699951 646.67552185 C-151.74454678 665.85868197 -150.54070907 686.10558463 -150.57025146 705.49705505 C-150.57184391 706.28701496 -150.57343636 707.07697487 -150.57507706 707.89087296 C-150.60993025 728.30131082 -150.37858565 748.59678485 -148.44525146 768.93455505 C-148.36247955 769.81256775 -148.27970764 770.69058044 -148.19442749 771.59519958 C-145.33275002 800.93254812 -140.01902144 827.46861141 -116.52337646 847.3056488 C-100.11329525 859.2958877 -81.06763426 861.15457984 -61.38275146 858.37205505 C-33.95599374 852.11064091 -12.48007756 834.84700868 4.04302979 812.70799255 C5.82267331 809.86874519 6.8152128 807.20638688 7.74224854 803.99705505 C8.40224854 803.99705505 9.06224854 803.99705505 9.74224854 803.99705505 C10.69287669 801.77276977 11.62739175 799.54354221 12.55474854 797.30955505 C12.81578369 796.70305115 13.07681885 796.09654724 13.34576416 795.47166443 C18.34958338 783.30188188 19.80998146 769.98519434 21.74224854 757.05955505 C22.00669411 755.3125354 22.27134411 753.56554668 22.53619385 751.81858826 C23.9012454 742.78073827 25.2450426 733.73950736 26.49224854 724.68455505 C26.59537354 723.9376239 26.69849854 723.19069275 26.80474854 722.42112732 C27.49571264 717.24287413 28.06965391 712.05334686 28.63677979 706.8603363 C29.74238894 696.76305101 31.01089104 686.68769843 32.28604126 676.61064148 C34.42453137 659.69865077 36.51707764 642.78500468 38.41558838 625.84422302 C38.75521757 622.88401706 39.11567156 619.92690848 39.48052979 616.9697113 C41.14612947 603.33535863 42.40374746 589.69120169 43.47442627 575.99998474 C43.60139889 574.3766075 43.72843555 572.75323527 43.85552979 571.12986755 C43.92168991 570.28468567 43.98785004 569.43950378 44.05601501 568.56871033 C44.66333367 560.87283264 45.31469094 553.18093307 45.97271729 545.48924255 C46.13643829 543.57355721 46.13643829 543.57355721 46.3034668 541.61917114 C46.74285286 536.48337958 47.18280444 531.34763985 47.62597656 526.21217346 C48.97640661 510.55427593 50.21314801 494.89413219 51.29888916 479.21556091 C52.35573802 464.09766018 53.81437866 449.01479585 55.30474854 433.93455505 C55.43164062 432.64307556 55.55853271 431.35159607 55.68927002 430.02098083 C55.81116699 428.80523376 55.93306396 427.58948669 56.05865479 426.3368988 C56.16637207 425.25787292 56.27408936 424.17884705 56.3850708 423.06712341 C56.62730322 420.98505047 56.92411103 418.90874272 57.26959229 416.84129333 C57.98261398 412.55064107 58.0898886 408.22927086 58.25982666 403.88963318 C58.47468342 399.49925836 58.98803354 395.24296752 59.69537354 390.90330505 C60.77119313 384.18465386 61.36598224 377.47434661 61.88867188 370.69285583 C63.03772676 355.93292701 64.50407843 341.21286461 66.11724854 326.49705505 C66.22264954 325.53527344 66.32805054 324.57349182 66.43664551 323.58256531 C68.22644371 307.31071561 70.102747 291.04856991 72.0425415 274.79393005 C73.13361841 265.60134405 74.10697374 256.40678488 74.96282959 247.1893158 C75.99987242 236.09189364 77.22514434 225.01480014 78.42974854 213.93455505 C80.1362738 198.23720661 81.80288683 182.53821894 83.35288048 166.82467461 C83.58488123 164.47711082 83.81839421 162.12970283 84.05250549 159.78234863 C84.12925349 159.01273772 84.20600149 158.24312681 84.28507519 157.45019436 C84.43930575 155.9041144 84.59360298 154.35804109 84.74796772 152.81197453 C85.20143027 148.26056823 85.6446661 143.70830344 86.08084679 139.15521049 C86.35636932 136.30400929 86.64131113 133.45380418 86.92868042 130.60377502 C87.12311891 128.64579157 87.30591236 126.68666261 87.48834229 124.7275238 C88.37976086 116.00185015 89.43334543 110.30595816 95.74224854 103.99705505 C100.75231425 96.0926112 102.86969434 89.43613625 101.74224854 79.99705505 C98.14454315 70.31351159 88.48694427 64.28271139 79.55474854 60.12205505 C78.66545654 59.70423767 77.77616455 59.28642029 76.85992432 58.85594177 C59.44605316 50.99438287 40.59683798 45.78079921 21.81719971 42.38206482 C19.62039111 41.97444426 17.4370129 41.51699115 15.25006104 41.05955505 C7.24879455 39.45008282 -0.84145899 38.32227587 -8.90887451 37.09886169 C-11.04503319 36.77410864 -13.18069761 36.44624321 -15.31634521 36.1181488 C-16.5776123 35.92664246 -17.83887939 35.73513611 -19.1383667 35.53782654 C-22.25775146 34.99705505 -22.25775146 34.99705505 -25.25775146 33.99705505 C-43.12475469 32.74007995 -59.27067938 34.76159896 -71.75775146 48.80955505 Z " fill="#FDFDFD" transform="translate(545.2577514648438,137.00294494628906)"/>
<path d="M0 0 C7.16857371 1.50369174 14.45452221 2.38900974 21.70703125 3.38769531 C47.20778839 7.01456978 73.97188356 14.10457521 96.94921875 25.921875 C97.71967529 26.3127832 98.49013184 26.70369141 99.28393555 27.10644531 C106.28179298 30.86556758 113.09384373 36.14366904 115.63671875 43.921875 C116.36113606 50.64569202 115.87830632 55.88581539 112.63671875 61.921875 C112.03923828 63.07042969 112.03923828 63.07042969 111.4296875 64.2421875 C108.1182254 70.46493502 108.1182254 70.46493502 106.10546875 72.375 C101.99768481 76.70128309 102.04741524 82.81143734 101.5234375 88.44140625 C101.42891296 89.39142014 101.33438843 90.34143402 101.23699951 91.32023621 C101.03306852 93.37861663 100.8325231 95.43733467 100.63497925 97.49633789 C100.32007525 100.77754912 99.99635343 104.05778301 99.67016602 107.33789062 C99.21555326 111.91331198 98.76392181 116.48901195 98.31445312 121.06494141 C97.26798215 131.68737197 96.17636226 142.30509473 95.07421875 152.921875 C94.97075134 153.92140198 94.86728394 154.92092896 94.76068115 155.95074463 C93.30001108 170.02959216 91.69562333 184.08382605 89.94946289 198.12988281 C88.7402056 207.89633664 87.72215362 217.66608658 86.85449219 227.46826172 C86.46189789 231.89154947 86.05016524 236.31299594 85.63671875 240.734375 C85.56565918 241.52166992 85.49459961 242.30896484 85.42138672 243.12011719 C84.88817544 248.84129846 84.19195168 254.53486078 83.4672699 260.23474121 C82.27043821 269.72234748 81.23607309 279.22818446 80.19921875 288.734375 C80.09000092 289.73145477 79.98078308 290.72853455 79.86825562 291.75582886 C78.23559712 306.71056334 76.78153466 321.66987149 75.62524414 336.66918945 C75.05354267 343.87905464 74.22484985 350.95776623 73.06274414 358.09594727 C72.53074503 361.62482391 72.32646277 365.04268653 72.19921875 368.609375 C71.86522185 375.90546509 71.0801039 383.11062593 70.19921875 390.359375 C69.00482191 400.24889416 68.06835751 410.12727592 67.37133789 420.06420898 C66.90777936 426.6299232 66.34441309 433.18102674 65.734375 439.734375 C64.88623783 448.89012579 64.13328544 458.05173151 63.41796875 467.21875 C63.36582781 467.88538918 63.31368687 468.55202835 63.2599659 469.23886871 C62.77476586 475.44431722 62.29248894 481.64999013 61.81396484 487.85595703 C59.71421885 515.05992274 59.71421885 515.05992274 58.28855896 527.15679932 C57.53711073 533.56761781 57.09846993 539.98126012 56.69921875 546.421875 C55.87322817 558.66102954 54.61449244 570.79936626 53.11816406 582.97265625 C52.55783436 587.56895103 52.01427992 592.16709521 51.47265625 596.765625 C49.11597593 616.74940537 46.68867283 636.72274403 44.16796875 656.68652344 C43.57605403 661.39152226 42.99724264 666.09811867 42.41796875 670.8046875 C37.51943714 710.55010034 37.51943714 710.55010034 34.63671875 728.921875 C34.48380371 729.89656738 34.33088867 730.87125977 34.17333984 731.87548828 C32.14618375 744.42587495 29.35885371 756.47760508 23.63671875 767.921875 C22.97671875 767.921875 22.31671875 767.921875 21.63671875 767.921875 C21.38664063 768.79714844 21.1365625 769.67242188 20.87890625 770.57421875 C19.57970189 774.07553364 18.00322971 776.51120102 15.76171875 779.484375 C14.74464844 780.84755859 14.74464844 780.84755859 13.70703125 782.23828125 C13.02382813 783.12386719 12.340625 784.00945313 11.63671875 784.921875 C10.99476563 785.75589844 10.3528125 786.58992187 9.69140625 787.44921875 C-4.86681941 804.96890856 -28.15390749 820.25420259 -51.18457031 822.73876953 C-71.87585361 824.47772767 -89.61296547 821.9748247 -105.84082031 808.26611328 C-126.18352758 790.30476847 -130.74522983 767.72273637 -133.36328125 741.921875 C-133.49122574 740.68336288 -133.61917023 739.44485077 -133.75099182 738.16880798 C-135.97483211 716.18798584 -136.78999472 694.45218644 -136.62756348 672.36621094 C-136.60832575 669.24213594 -136.60443605 666.11811797 -136.60071564 662.99399185 C-136.54471471 620.13100897 -136.54471471 620.13100897 -134.36328125 607.921875 C-134.21194824 605.35762128 -134.08982958 602.80037806 -133.98828125 600.234375 C-133.42195523 588.46394411 -132.0103607 576.78513698 -130.61688232 565.08895874 C-130.33563683 562.6856466 -130.06759819 560.2810137 -129.79931641 557.8762207 C-127.6335053 538.80436468 -124.75680585 519.84440651 -121.88598633 500.86895752 C-121.35823301 497.3728753 -120.83501523 493.87612065 -120.31177139 490.37936115 C-117.68360935 472.82686099 -115.00349053 455.28801735 -112.00515747 437.79438782 C-110.63286146 429.75222604 -109.45334263 421.69447725 -108.36328125 413.609375 C-108.21255157 412.49763412 -108.21255157 412.49763412 -108.05877686 411.36343384 C-107.83457661 409.7021241 -107.61250546 408.0405274 -107.390625 406.37890625 C-106.32120983 398.5048806 -105.13084958 390.65094437 -103.92578125 382.796875 C-102.13303792 371.09727611 -100.40456236 359.39017457 -98.73828125 347.671875 C-98.63235657 346.927099 -98.52643188 346.182323 -98.41729736 345.41497803 C-97.73073575 340.58421053 -97.0467655 335.75307875 -96.36328125 330.921875 C-93.33111902 309.52699155 -90.18749909 288.15040112 -86.86791992 266.7980957 C-85.40924914 257.35580078 -84.06157722 247.89871925 -82.7578125 238.43383789 C-82.08818483 233.64480427 -81.39348627 228.89919481 -80.37109375 224.171875 C-79.29842743 219.03717839 -78.72769137 213.86028072 -78.14283752 208.65332031 C-77.24557667 200.71629202 -76.10154093 192.8217301 -74.92578125 184.921875 C-74.81589874 184.17808594 -74.70601624 183.43429687 -74.59280396 182.66796875 C-73.22993986 173.44995275 -71.78108748 164.2590978 -70.09765625 155.09375 C-69.14377361 149.80308946 -68.3567068 144.48669293 -67.55078125 139.171875 C-65.84763131 127.9522163 -64.05875168 116.74801267 -62.23828125 105.546875 C-62.11013031 104.75768677 -61.98197937 103.96849854 -61.84994507 103.15539551 C-61.1315361 98.73326471 -60.41016688 94.3116307 -59.6854248 89.89053345 C-59.38018547 88.02517877 -59.07723265 86.15945036 -58.77441406 84.29370117 C-58.60006836 83.22869385 -58.42572266 82.16368652 -58.24609375 81.06640625 C-58.0980127 80.15737549 -57.94993164 79.24834473 -57.79736328 78.31176758 C-57.40788059 76.16742221 -56.93006857 74.08771458 -56.36328125 71.984375 C-53.44044532 60.80336773 -50.58972774 48.39126984 -56.30078125 37.859375 C-57.30558445 36.20370638 -58.32313316 34.5555702 -59.36328125 32.921875 C-61.68967951 28.26907848 -60.76793037 21.98576967 -60.36328125 16.921875 C-56.44560592 8.14628227 -47.63642321 3.42040846 -39.078125 0.01171875 C-26.55448435 -4.14992382 -12.6636246 -2.71454845 0 0 Z M-35.36328125 58.921875 C-38.49843416 64.24807227 -39.40033671 69.48753007 -40.36328125 75.546875 C-40.53206787 76.56015869 -40.70085449 77.57344238 -40.87475586 78.61743164 C-42.09560641 86.0216909 -43.20918067 93.44178133 -44.29125977 100.86743164 C-45.01247346 105.7667109 -45.84902553 110.62325709 -46.80078125 115.484375 C-50.12269196 132.75139005 -52.28169173 150.24124649 -54.64990234 167.65893555 C-56.5828333 181.73603703 -58.70360275 195.78547007 -60.8137207 209.83691406 C-64.50911221 234.218251 -64.50911221 234.218251 -67.67578125 258.671875 C-71.01040965 286.09303128 -75.36805899 313.40680562 -79.69384766 340.68603516 C-80.31163089 344.58754982 -80.92192744 348.49021392 -81.53109741 352.39308167 C-82.07070975 355.84930332 -82.61213695 359.30523947 -83.15380859 362.76113892 C-83.41470835 364.42768426 -83.67498113 366.0943279 -83.93457031 367.76107788 C-85.13241959 375.44672356 -86.34809977 383.11084094 -87.93188477 390.72851562 C-88.69805504 394.62397331 -89.21795526 398.54974103 -89.73828125 402.484375 C-89.92173096 403.85215088 -89.92173096 403.85215088 -90.10888672 405.24755859 C-91.29094516 414.17363399 -92.39429555 423.10965509 -93.48828125 432.046875 C-93.57454773 432.74684601 -93.66081421 433.44681702 -93.74969482 434.16799927 C-94.71489154 442.0212536 -95.58332971 449.86049246 -96.11279297 457.75732422 C-96.36328125 459.921875 -96.36328125 459.921875 -97.36328125 460.921875 C-97.40391957 462.58804615 -97.40600225 464.25575595 -97.36328125 465.921875 C-96.70328125 466.251875 -96.04328125 466.581875 -95.36328125 466.921875 C-94.91909258 474.43606667 -94.72494993 479.78290708 -99.36328125 485.921875 C-100.02328125 486.251875 -100.68328125 486.581875 -101.36328125 486.921875 C-102.12250704 489.83649678 -102.12250704 489.83649678 -102.66015625 493.4609375 C-102.77423325 494.15281158 -102.88831024 494.84468567 -103.00584412 495.55752563 C-103.38543638 497.88575765 -103.75008154 500.21603284 -104.11328125 502.546875 C-104.30587021 503.75603577 -104.30587021 503.75603577 -104.50234985 504.98962402 C-107.57800077 524.32471689 -110.02724254 543.74224183 -112.40354919 563.17370605 C-112.99946429 568.03554408 -113.62069753 572.89123 -114.30078125 577.7421875 C-118.96965608 611.67573233 -120.04745583 646.32408567 -119.40686035 680.54180908 C-119.36136828 683.02635135 -119.32231902 685.51094005 -119.28417969 687.99560547 C-118.91542709 714.50324231 -118.91542709 714.50324231 -116.61621094 740.89648438 C-116.37421812 742.83429561 -116.16865468 744.77655176 -115.96484375 746.71875 C-113.70148013 765.93598832 -106.96875881 782.90448979 -92.21484375 795.80859375 C-80.97847068 804.13582365 -67.19495039 807.77316195 -53.36328125 805.921875 C-47.77450357 804.60126563 -42.55010353 802.34877614 -37.36328125 799.921875 C-35.89955078 799.23738281 -35.89955078 799.23738281 -34.40625 798.5390625 C-24.55640754 793.49155904 -15.0585096 786.88018808 -7.36328125 778.921875 C-6.53763672 778.21804688 -6.53763672 778.21804688 -5.6953125 777.5 C5.36799692 767.83026941 11.19251768 752.81348599 14.63671875 738.921875 C14.80623047 738.24495605 14.97574219 737.56803711 15.15039062 736.87060547 C16.6306501 730.64932625 17.40650847 724.39408747 18.13671875 718.046875 C18.80941214 712.24397051 19.49257745 706.48168404 20.61328125 700.74609375 C21.90862785 693.87854458 22.56152852 686.94427051 23.26806641 679.99752808 C24.5340035 667.58947361 25.92865778 655.21502311 27.63671875 642.859375 C29.16426057 631.74929523 30.51933951 620.62925626 31.76171875 609.484375 C31.84212402 608.77135223 31.9225293 608.05832947 32.00537109 607.32369995 C32.98784248 598.58185691 33.82737715 589.83641197 34.5625 581.0703125 C35.69263014 567.68059417 37.191968 554.3360057 38.69921875 540.984375 C38.9709494 538.55536608 39.24243481 536.12632971 39.51367188 533.69726562 C40.00908582 529.27205734 40.50466356 524.84686971 41.00415039 520.42211914 C41.10978302 519.48006622 41.21541565 518.53801331 41.32424927 517.56741333 C41.61065912 515.14251019 41.94294851 512.72812106 42.28295898 510.31030273 C42.92934806 507.05907399 42.92934806 507.05907399 41.63671875 504.921875 C34.25557006 504.31539476 34.25557006 504.31539476 27.51171875 506.796875 C24.36434502 510.36389856 24.34206637 513.06338728 23.91796875 517.7578125 C23.85516724 518.4335733 23.79236572 519.10933411 23.72766113 519.80557251 C23.52687546 521.96901009 23.33130608 524.13287171 23.13671875 526.296875 C22.9418246 528.45370363 22.74571555 530.61038705 22.54577637 532.76675415 C22.36394797 534.72881552 22.18674352 536.69130376 22.00976562 538.65380859 C21.72049165 541.18798488 21.34992998 543.48302929 20.63671875 545.921875 C20.50531403 539.09247956 20.86911153 532.45586314 21.63671875 525.671875 C23.38314962 516.46784124 23.38314962 516.46784124 21.26171875 508.109375 C18.18208598 505.85887413 15.69275362 505.74080773 11.92993164 505.48095703 C-4.22424036 504.25125025 -19.14013258 499.02645542 -34.40625 493.8984375 C-35.19529221 493.63374664 -35.98433441 493.36905579 -36.79728699 493.09634399 C-40.72023993 491.77826049 -44.63882225 490.44922869 -48.55053711 489.09814453 C-63.13819148 483.8850878 -63.13819148 483.8850878 -78.36328125 481.921875 C-78.22207411 479.98403235 -78.07515252 478.04660545 -77.92578125 476.109375 C-77.84457031 475.03042969 -77.76335937 473.95148438 -77.6796875 472.83984375 C-77.36328125 469.921875 -77.36328125 469.921875 -76.36328125 466.921875 C-67.32177577 467.27584631 -59.11205195 469.44194243 -50.48828125 472.046875 C-49.11147793 472.45452648 -47.73452293 472.86166599 -46.35742188 473.26831055 C-37.6206048 475.86442526 -28.95834318 478.65842264 -20.33081055 481.59692383 C-6.58037464 486.26045117 7.97173367 490.86800307 22.63671875 489.921875 C24.91676069 487.64183306 24.96297189 487.01770329 25.32275391 483.93115234 C25.4227066 483.11045258 25.5226593 482.28975281 25.62564087 481.44418335 C25.72468719 480.55768097 25.82373352 479.67117859 25.92578125 478.7578125 C26.08800674 477.39700058 26.08800674 477.39700058 26.25350952 476.00869751 C26.59769595 473.10564534 26.92983281 470.20135659 27.26171875 467.296875 C27.49269845 465.33063607 27.72445938 463.36448874 27.95703125 461.3984375 C28.52600392 456.57393361 29.0841726 451.74828665 29.63671875 446.921875 C30.69253152 450.75666666 30.76973121 454.24817388 30.76171875 458.234375 C30.76429688 459.50925781 30.766875 460.78414062 30.76953125 462.09765625 C30.63671875 465.921875 30.63671875 465.921875 30.1328125 469.375 C29.56818339 473.41187582 29.52584696 477.29242362 29.57421875 481.359375 C29.58098633 482.45668945 29.58098633 482.45668945 29.58789062 483.57617188 C29.59953727 485.35810919 29.61746684 487.14000363 29.63671875 488.921875 C31.24167442 488.80745039 32.84569994 488.67992806 34.44921875 488.546875 C35.34253906 488.47726562 36.23585938 488.40765625 37.15625 488.3359375 C39.88070374 488.05542464 39.88070374 488.05542464 42.63671875 485.921875 C42.63671875 485.261875 42.63671875 484.601875 42.63671875 483.921875 C43.29671875 483.921875 43.95671875 483.921875 44.63671875 483.921875 C44.70078415 483.02257263 44.76484955 482.12327026 44.83085632 481.19671631 C47.93392457 437.719952 51.09880846 394.27704833 55.63671875 350.921875 C55.84902256 348.88070329 56.06126132 346.83952482 56.2734375 344.79833984 C58.03844816 327.85825363 59.85870713 310.92427774 61.734375 293.99609375 C62.07773914 290.88812123 62.42006083 287.78003552 62.76171875 284.671875 C62.84348358 283.92986847 62.92524841 283.18786194 63.00949097 282.42337036 C64.42626193 269.5081068 65.58779344 256.57730004 66.59814453 243.62402344 C66.68122864 242.59097076 66.68122864 242.59097076 66.76599121 241.53704834 C66.91352988 239.69946495 67.05587721 237.86146671 67.19775391 236.0234375 C67.51864515 232.59479156 68.04867383 229.21438695 68.59130859 225.81420898 C69.67871977 218.90228779 70.40970215 211.98320877 71.07421875 205.01953125 C71.26622254 203.06259975 71.45822991 201.10566859 71.6504364 199.14875698 C71.98218996 195.76091943 72.30921781 192.37262581 72.63671875 188.984375 C73.02842218 184.93576606 73.42122208 180.88727412 73.81860352 176.83921814 C74.06422454 174.33394078 74.30710214 171.82839221 74.54663086 169.32252502 C75.24316718 162.21574738 76.13956547 155.16405881 77.17944336 148.09953308 C77.7575857 144.08195697 78.22002794 140.06042564 78.63671875 136.0234375 C78.75853516 134.87819107 78.75853516 134.87819107 78.8828125 133.70980835 C79.13649605 131.3224083 79.38691125 128.93468345 79.63671875 126.546875 C79.96815771 123.39302619 80.30162595 120.23940012 80.63671875 117.0859375 C80.71776855 116.31799866 80.79881836 115.55005981 80.88232422 114.7588501 C81.28532627 110.99207767 81.71592081 107.23195654 82.20703125 103.47558594 C82.29984375 102.76445648 82.39265625 102.05332703 82.48828125 101.32064819 C82.74342279 99.39583881 83.00618362 97.47204366 83.26953125 95.54833984 C83.67150414 91.57832304 83.8475404 87.90903949 83.63671875 83.921875 C79.40138513 79.33359691 75.16265057 78.86913689 69.19140625 78.45703125 C68.12422363 78.3806543 67.05704102 78.30427734 65.95751953 78.22558594 C64.25184814 78.10618652 64.25184814 78.10618652 62.51171875 77.984375 C57.88626081 77.63612012 53.26148444 77.2791922 48.63671875 76.921875 C47.80205078 76.85919434 46.96738281 76.79651367 46.10742188 76.73193359 C22.43247496 74.87086049 -1.5177894 69.05075295 -23.67578125 60.546875 C-27.80106703 58.9722391 -30.97033308 58.53139072 -35.36328125 58.921875 Z " fill="#0E0C0A" transform="translate(531.36328125,173.078125)"/>
<path d="M0 0 C0.33 0 0.66 0 1 0 C1 2.31 1 4.62 1 7 C1.80832275 7.07839111 2.61664551 7.15678223 3.44946289 7.23754883 C12.84334755 8.34228292 21.23574499 10.76871823 30.12991333 13.88067627 C33.28381054 14.9834037 36.44733097 16.05713608 39.61076355 17.13214111 C41.19045582 17.66895854 42.7697355 18.20699174 44.34858704 18.74627686 C50.88813926 20.97687017 57.45553499 23.10197842 64.0625 25.125 C64.92738037 25.39530029 65.79226074 25.66560059 66.68334961 25.9440918 C75.80236675 28.70990902 84.86378843 30.14986889 94.37109375 30.65625 C97.039862 31.00521227 98.74034598 31.55876281 101 33 C102.44562072 35.89124144 101.88710359 38.16600202 101.625 41.375 C101.52574219 42.63570312 101.42648437 43.89640625 101.32421875 45.1953125 C101.1240102 47.54474781 100.91923447 49.89380518 100.70703125 52.2421875 C100.61808594 53.23476563 100.52914062 54.22734375 100.4375 55.25 C100.35371094 56.12140625 100.26992188 56.9928125 100.18359375 57.890625 C99.92552993 62.26123777 99.96609177 66.62314681 100 71 C100.48799001 67.79294615 100.96473557 64.58433263 101.4375 61.375 C101.57945801 60.42109375 101.72141602 59.4671875 101.86767578 58.484375 C102.66258795 52.9655462 103.1790304 47.57028731 103.375 42 C103.72983639 35.49723737 103.72983639 35.49723737 106.5 32.6875 C107.325 32.130625 108.15 31.57375 109 31 C109.33 30.67 109.66 30.34 110 30 C111.85287502 29.92773498 113.70833878 29.9161878 115.5625 29.9375 C116.57441406 29.94652344 117.58632813 29.95554687 118.62890625 29.96484375 C119.41136719 29.97644531 120.19382812 29.98804688 121 30 C121.92207768 34.24155734 122.06288938 37.37578074 121.09741211 41.62011719 C120.00048758 46.7976531 119.35094276 51.9413263 118.81640625 57.203125 C118.71650391 58.14984573 118.61660156 59.09656647 118.51367188 60.07197571 C118.19209625 63.1308639 117.87722505 66.19040008 117.5625 69.25 C117.33817087 71.39578979 117.11347689 73.54154147 116.88842773 75.68725586 C115.74305855 86.64215538 114.63563106 97.60030365 113.5625 108.5625 C110.49330335 139.79021389 107.11838443 171.0125131 102.80078125 202.09375 C102.07964511 207.30389619 101.4793352 212.51854686 100.9375 217.75 C100.24861341 224.37020012 99.24853504 230.90344891 98.10302734 237.45947266 C97.28359468 242.17095281 96.625811 246.87424438 96.0625 251.625 C93.67935666 269.63310736 88.18592472 284.44513795 77 299 C76.34837891 299.89912109 76.34837891 299.89912109 75.68359375 300.81640625 C65.09583625 314.43826739 43.10032891 328.22787637 26 331 C15.93761056 331.6912227 7.3617025 331.151592 -2 327 C-2.76441406 326.67257812 -3.52882813 326.34515625 -4.31640625 326.0078125 C-15.52671573 320.51295598 -24.04073647 311.32610681 -29 300 C-29.50273437 298.89140625 -30.00546875 297.7828125 -30.5234375 296.640625 C-41.59528964 269.34177262 -39.46764656 236.97404748 -40 208 C-40.01544861 207.20817322 -40.03089722 206.41634644 -40.04681396 205.6005249 C-40.72284334 170.32551625 -39.40570536 134.69149804 -34.50390625 99.72753906 C-33.85746017 94.94559196 -33.27319425 90.15689817 -32.6875 85.3671875 C-30.4220279 66.92506285 -28.08729922 48.48670812 -25.24893188 30.12268066 C-25.00105811 28.50843631 -24.75910372 26.8932711 -24.52328491 25.27722168 C-24.19749005 23.06048268 -23.84858527 20.84871434 -23.4921875 18.63671875 C-23.29995605 17.39623779 -23.10772461 16.15575684 -22.90966797 14.87768555 C-22 12 -22 12 -19.90673828 10.58520508 C-19.27751465 10.3920874 -18.64829102 10.19896973 -18 10 C-17.62139886 32.87333353 -17.62139886 32.87333353 -19 43.3125 C-19.83780526 49.70423772 -20.2206574 55.98885236 -20.25 62.4375 C-20.25902344 63.24936768 -20.26804687 64.06123535 -20.27734375 64.89770508 C-20.2574363 68.78090248 -20.20154217 70.69768675 -18 74 C-15.11404054 74.58481121 -15.11404054 74.58481121 -11.875 74.6875 C-10.77929688 74.75324219 -9.68359375 74.81898438 -8.5546875 74.88671875 C-7.71164062 74.92410156 -6.86859375 74.96148438 -6 75 C-6 73.35 -6 71.7 -6 70 C-5.01 70 -4.02 70 -3 70 C-3.10828125 69.195625 -3.10828125 69.195625 -3.21875 68.375 C-4.87878 54.35696885 -3.80297607 40.99900971 -2.14428711 27.04394531 C-1.07867102 18.03412638 -0.37070328 9.06305593 0 0 Z " fill="#ECA335" transform="translate(452,648)"/>
<path d="M0 0 C0.495 1.485 0.495 1.485 1 3 C2.32986125 3.67356609 3.66382584 4.33904552 5 5 C7.0703125 7.0234375 7.0703125 7.0234375 9.125 9.375 C9.80820312 10.14585938 10.49140625 10.91671875 11.1953125 11.7109375 C12.82432039 13.77716828 13.91263034 15.622285 15 18 C15.639375 19.11375 16.27875 20.2275 16.9375 21.375 C22.99519428 33.58114054 23.62433131 47.90974571 20.06640625 60.88671875 C18.15705992 66.46089099 15.62533503 71.73233749 13 77 C12.34 77 11.68 77 11 77 C10.773125 77.556875 10.54625 78.11375 10.3125 78.6875 C8.63403407 81.64479711 6.46653071 83.71170344 4 86 C2.87658203 87.07894531 2.87658203 87.07894531 1.73046875 88.1796875 C-3.20344924 92.80286718 -7.65341277 96.60611184 -14 99 C-15.38058594 99.55494141 -15.38058594 99.55494141 -16.7890625 100.12109375 C-30.86798397 105.16924301 -45.99388875 104.44954893 -59.63671875 98.3828125 C-73.53566072 91.72781826 -87.33846523 81.59293022 -93.5 66.875 C-98.81526794 51.20498839 -97.42477446 36.5659195 -90.75 21.5 C-90.1725 20.345 -89.595 19.19 -89 18 C-88.34 18 -87.68 18 -87 18 C-86.62875 16.948125 -86.62875 16.948125 -86.25 15.875 C-80.79669198 3.33239156 -67.63278745 -4.96920051 -55.3359375 -10.15234375 C-35.98863179 -17.17302158 -16.05461342 -11.94199327 0 0 Z " fill="#FEFEFE" transform="translate(657,35)"/>
<path d="M0 0 C2.45597479 0.87894645 4.92124417 1.72304269 7.39208984 2.55908203 C22.52206336 7.77816723 22.52206336 7.77816723 25.59912109 12.93017578 C26.48284914 16.15550172 26.57720793 18.72082834 25.59912109 21.93017578 C18.41258654 28.44819549 10.78578318 28.29995958 1.59912109 27.93017578 C-3.35044206 27.61901013 -8.2789746 27.17448834 -13.21337891 26.68017578 C-13.88451721 26.61359772 -14.55565552 26.54701965 -15.24713135 26.47842407 C-92.92393384 18.69744889 -92.92393384 18.69744889 -113.40087891 -3.06982422 C-114.57071235 -5.40949111 -114.56700301 -6.90373949 -114.58837891 -9.50732422 C-114.60255859 -10.28978516 -114.61673828 -11.07224609 -114.63134766 -11.87841797 C-114.40087891 -14.06982422 -114.40087891 -14.06982422 -112.40087891 -17.06982422 C-81.06261315 -28.69456128 -29.70694059 -10.68300121 0 0 Z " fill="#B9D1E4" transform="translate(602.40087890625,208.06982421875)"/>
<path d="M0 0 C7.41308535 4.02811487 13.15753683 9.23011845 17.56640625 16.39453125 C17.92992187 16.98492188 18.2934375 17.5753125 18.66796875 18.18359375 C21.28461947 24.62282988 20.34943616 33.29457395 18.00390625 39.70703125 C14.36850546 47.48986111 9.11907574 54.18484661 1.56640625 58.39453125 C0.5609375 58.98234375 0.5609375 58.98234375 -0.46484375 59.58203125 C-9.12807679 63.85431055 -20.36667625 64.08310681 -29.60546875 61.51171875 C-36.81143638 58.21444265 -41.33322154 53.10517925 -44.80859375 46.08203125 C-48.03059655 37.24183028 -48.0529825 25.52090209 -44.74609375 16.70703125 C-44.02366162 15.24460788 -43.25564182 13.80337022 -42.43359375 12.39453125 C-42.08296875 11.75386719 -41.73234375 11.11320313 -41.37109375 10.453125 C-32.662006 -3.54794315 -14.33601865 -6.04633872 0 0 Z " fill="#0D0A08" transform="translate(507.43359375,843.60546875)"/>
<path d="M0 0 C11.10654291 8.28949876 11.10654291 8.28949876 12.87890625 14.40234375 C13.71627716 22.00684002 13.74671531 29.19827338 8.87890625 35.40234375 C3.97047966 40.67278011 -1.31270123 44.88271533 -8.6875 45.6796875 C-17.90436117 46.00016251 -25.16753501 43.85889665 -32.39453125 38.0859375 C-35.8183614 34.74731579 -37.61313584 30.92621748 -39.12109375 26.40234375 C-39.05861982 23.69608677 -38.93685045 21.03666654 -38.74609375 18.33984375 C-38.68035156 17.2405957 -38.68035156 17.2405957 -38.61328125 16.11914062 C-38.25271577 10.6655878 -38.25271577 10.6655878 -37.12109375 8.40234375 C-36.13109375 8.07234375 -35.14109375 7.74234375 -34.12109375 7.40234375 C-33.89421875 6.63921875 -33.66734375 5.87609375 -33.43359375 5.08984375 C-31.47061785 1.07041691 -28.17913208 -0.03569433 -24.12109375 -1.59765625 C-16.69283424 -3.98418218 -6.77510017 -4.11188585 0 0 Z " fill="#0D0A08" transform="translate(483.12109375,714.59765625)"/>
<path d="M0 0 C3 2 3 2 4 5 C4.54838857 11.55795344 3.49206658 17.77206043 2.25 24.1875 C0.27549343 34.89799851 -1.22590196 45.64349721 -2.60449219 56.4440918 C-3.44498019 62.99399538 -4.38306185 69.50596675 -5.5 76.0144043 C-6.02717565 79.16227101 -6.50198331 82.31471564 -6.96484375 85.47265625 C-7.20557617 87.09977539 -7.20557617 87.09977539 -7.45117188 88.75976562 C-7.77587136 90.96485327 -8.09617213 93.17059302 -8.41210938 95.37695312 C-11.37380715 115.21206848 -11.37380715 115.21206848 -17 120 C-20.65874941 120.90754136 -24.03533902 120.38586439 -27.5 119 C-29.79394104 115.94141194 -29.2266952 112.66282979 -29 109 C-28.62588433 106.59345453 -28.1857511 104.1964399 -27.6875 101.8125 C-26.42921859 95.54344254 -25.42745548 89.27241025 -24.5625 82.9375 C-23.37830913 74.31719365 -21.94251527 65.75984506 -20.41479492 57.19433594 C-19.23440692 50.51746295 -18.27318089 43.84871005 -17.42578125 37.12109375 C-16.95716262 33.68599023 -16.29554494 30.33264972 -15.56640625 26.9453125 C-15.07713565 24.4011054 -14.66300113 21.86601563 -14.27734375 19.3046875 C-14.14900146 18.45487305 -14.02065918 17.60505859 -13.88842773 16.72949219 C-13.63348624 15.02005416 -13.38411319 13.3097745 -13.14086914 11.59863281 C-13.02219482 10.80553711 -12.90352051 10.01244141 -12.78125 9.1953125 C-12.67876953 8.48391113 -12.57628906 7.77250977 -12.47070312 7.03955078 C-11.94076244 4.7433244 -11.26105394 2.99378468 -10 1 C-6.47005387 -0.17664871 -3.70544587 -0.19850603 0 0 Z " fill="#FDFDFE" transform="translate(507,284)"/>
<path d="M0 0 C4.1555885 1.48973927 5.3558114 2.19585526 7.3125 6.1875 C7.93327925 11.65664378 7.73880965 16.80134882 6.31640625 22.1171875 C5.30537432 25.93709442 5.01071782 29.53950722 4.875 33.5 C4.60113142 39.950883 3.96866605 46.30153099 3.17285156 52.70849609 C1.37173751 67.26091527 0.95629223 81.53548695 1.3125 96.1875 C0.3225 96.1875 -0.6675 96.1875 -1.6875 96.1875 C-1.6875 97.8375 -1.6875 99.4875 -1.6875 101.1875 C-3.62377769 101.29557131 -5.56177756 101.3731225 -7.5 101.4375 C-8.57894531 101.48390625 -9.65789062 101.5303125 -10.76953125 101.578125 C-13.6875 101.1875 -13.6875 101.1875 -15.5546875 99.7109375 C-17.20486493 96.03502503 -17.08592751 92.51239378 -17 88.5625 C-16.990896 87.7156665 -16.98179199 86.86883301 -16.97241211 85.99633789 C-16.85243909 79.76411647 -16.27750482 73.65923914 -15.4699707 67.48339844 C-14.45543814 59.30667503 -14.28492948 51.10080269 -14.11743164 42.86889648 C-14.0889917 41.80098877 -14.06055176 40.73308105 -14.03125 39.6328125 C-14.01255859 38.67906738 -13.99386719 37.72532227 -13.97460938 36.74267578 C-13.67668796 34.09127656 -12.93392461 32.51264398 -11.6875 30.1875 C-11.44639241 27.13735072 -11.44639241 27.13735072 -11.5625 23.9375 C-11.58054687 22.85984375 -11.59859375 21.7821875 -11.6171875 20.671875 C-11.64039063 19.85203125 -11.66359375 19.0321875 -11.6875 18.1875 C-12.3475 17.8575 -13.0075 17.5275 -13.6875 17.1875 C-14.0850267 12.68219742 -13.09761335 9.99703401 -10.6875 6.1875 C-7.4007825 2.38272109 -5.13734064 0.26122071 0 0 Z " fill="#FDFCFB" transform="translate(447.6875,621.8125)"/>
<path d="M0 0 C5.09620539 3.01237564 8.70841667 7.93775001 10.5625 13.5 C11.82961405 21.3432756 8.99863738 26.20533125 4.5625 32.5 C3.964375 33.428125 3.36625 34.35625 2.75 35.3125 C-1.99440137 40.05690137 -7.11875722 42.78557054 -13.875 43.1875 C-21.74392026 42.79074772 -27.75194603 38.66295426 -32.9375 32.9375 C-35.72441883 29.34757066 -37.15751193 26.25992499 -37.875 21.75 C-36.80870449 13.82894765 -31.50834814 7.41267795 -25.4375 2.5 C-18.26688984 -2.85025659 -8.20027715 -3.52564699 0 0 Z " fill="#0C0B0A" transform="translate(548.4375,525.5)"/>
<path d="M0 0 C5.26977053 4.58240916 8.71177001 8.59888612 9.3125 15.6875 C9.2093634 21.30844472 7.17463624 25.67076877 3.3515625 29.765625 C-0.85829104 33.55265482 -4.42960012 35.69155201 -10.125 36.375 C-18.23047482 35.59059921 -25.23295084 32.76704916 -31 27 C-33.85199857 22.72200214 -33.48971987 19.0196287 -33 14 C-30.69904438 6.73382436 -26.24500516 1.32346511 -20 -3 C-12.97326437 -5.81069425 -6.21710805 -3.61106464 0 0 Z " fill="#13100E" transform="translate(632,64)"/>
<path d="M0 0 C1.85625 -0.00386719 1.85625 -0.00386719 3.75 -0.0078125 C7 0.125 7 0.125 10 1.125 C10 1.785 10 2.445 10 3.125 C10.7425 3.310625 11.485 3.49625 12.25 3.6875 C15.99474637 5.64498106 17.57592759 8.26939969 19 12.125 C19.82601366 17.90709563 19.007701 21.47295371 15.703125 26.296875 C12.69220832 29.52877639 8.973112 31.306267 5 33.125 C4.01 33.62 4.01 33.62 3 34.125 C1.20568976 34.08797455 -0.58750251 33.97303932 -2.375 33.8125 C-3.33148437 33.73386719 -4.28796875 33.65523438 -5.2734375 33.57421875 C-9.65506439 32.85231747 -11.60070308 31.52429692 -14.75 28.375 C-18.43604885 22.95433992 -17.82448511 16.37609622 -17 10.125 C-15.97591845 7.41068677 -15.0409692 6.28259601 -13 4.125 C-12.484375 3.526875 -11.96875 2.92875 -11.4375 2.3125 C-8.04624796 -0.48896907 -4.1742632 -0.00869638 0 0 Z " fill="#14120F" transform="translate(537,329.875)"/>
<path d="M0 0 C5.19582105 3.20267003 7.77548593 6.01271925 9.3828125 11.90625 C9.9584903 17.4291589 7.56554246 20.30098692 4.36328125 24.58984375 C0.92457678 28.61183932 -1.87958648 30.45268297 -7.2578125 31.34375 C-12.3366965 31.67679157 -15.74175379 31.39451938 -19.7421875 28.09375 C-22.56763688 25.35617345 -23.5209952 23.18819736 -23.8203125 19.19921875 C-23.93034154 11.90979503 -23.52750564 7.27130535 -18.6171875 1.59375 C-13.67508767 -2.57614673 -5.75537854 -2.40523282 0 0 Z " fill="#E8A134" transform="translate(501.6171875,859.09375)"/>
<path d="M0 0 C3.19734218 1.85109284 5.45474173 3.3603346 7.46484375 6.49609375 C8.11885943 10.326757 7.64052859 13.58222408 5.90234375 17.05859375 C5.24234375 17.05859375 4.58234375 17.05859375 3.90234375 17.05859375 C3.57234375 18.04859375 3.24234375 19.03859375 2.90234375 20.05859375 C-1.33318481 22.88227946 -5.12242939 22.72513132 -10.09765625 22.05859375 C-13.0318882 20.26212521 -14.5697098 19.11448665 -16.09765625 16.05859375 C-16.61202513 11.97303521 -17.01864357 7.84011748 -15.0859375 4.1015625 C-11.08889186 -0.83172807 -5.98977847 -2.68815011 0 0 Z " fill="#E6A034" transform="translate(625.09765625,69.94140625)"/>
<path d="M0 0 C1.84395286 1.23227843 3.54241789 2.56976164 5.11328125 4.140625 C5.82035196 11.21133207 5.82035196 11.21133207 2.92578125 15.015625 C-2.67167911 19.24481727 -7.07670879 19.40768421 -13.88671875 19.140625 C-13.88671875 18.480625 -13.88671875 17.820625 -13.88671875 17.140625 C-14.87671875 16.810625 -15.86671875 16.480625 -16.88671875 16.140625 C-17.45577033 4.10623787 -17.45577033 4.10623787 -13.88671875 0.140625 C-9.42104627 -1.34793249 -4.40637862 -2.00704616 0 0 Z " fill="#E6A034" transform="translate(543.88671875,337.859375)"/>
<path d="M0 0 C2.36497439 1.86708505 3.66030715 3.32061431 5 6 C5.52657873 11.28305214 5.64191122 15.66862857 3.3125 20.5 C-0.06079758 24.1468082 -2.27496123 25.9023563 -7.3125 26.1875 C-8.199375 26.125625 -9.08625 26.06375 -10 26 C-12.51073078 21.57396867 -12.23912454 17.9676195 -12 13 C-11.97035156 12.10796875 -11.94070313 11.2159375 -11.91015625 10.296875 C-11.85730469 9.41515625 -11.80445313 8.5334375 -11.75 7.625 C-11.70359375 6.81289063 -11.6571875 6.00078125 -11.609375 5.1640625 C-10.02798619 -0.45189518 -5.06462981 -0.63307873 0 0 Z " fill="#FDFDFE" transform="translate(482,419)"/>
<path d="M0 0 C3.60910856 1.39285426 6.13127164 2.95546734 7.83203125 6.45703125 C8.34904315 10.00225569 8.2578625 11.75348397 6.39453125 14.83203125 C1.38706756 18.00749603 -4.43189771 16.71391186 -10.04296875 15.70703125 C-12.74340048 15.02367593 -14.04621721 14.55664615 -16.23046875 12.76953125 C-17.57825654 9.44498804 -17.6117701 7.00744207 -17.16796875 3.45703125 C-13.8912971 -2.62821609 -5.87980682 -1.47260027 0 0 Z " fill="#FCFDFE" transform="translate(595.16796875,211.54296875)"/>
<path d="M0 0 C4.91447368 1.54714912 4.91447368 1.54714912 6.375 4.0625 C7.42541831 9.07218733 7.95142313 12.45205861 5.375 17.0625 C3.375 19.0625 3.375 19.0625 0 19.4375 C-3.625 19.0625 -3.625 19.0625 -6 17.1875 C-8.90719441 13.38578423 -9.10442356 10.8567356 -8.625 6.0625 C-6.66050754 1.93970865 -4.73720906 0.08167602 0 0 Z " fill="#FEFCF8" transform="translate(433.625,741.9375)"/>
<path d="M0 0 C5.81422706 0.19380757 9.44949791 1.11542505 14 5 C15.0625 6.9375 15.0625 6.9375 15 9 C13.74739213 11.76892266 12.6586299 13.52306111 10.1875 15.3125 C7.32514352 16.21209775 4.98365243 16.25392787 2 16 C-1.67950002 13.54699998 -2.02216355 12.23729127 -3 8 C-2.58333333 2.58333333 -2.58333333 2.58333333 0 0 Z " fill="#E29D34" transform="translate(465,728)"/>
<path d="M0 0 C1.32 0 2.64 0 4 0 C3.97296652 13.00310281 2.64581678 25.45991119 0.0625 38.1875 C-0.07069641 38.85324036 -0.20389282 39.51898071 -0.34112549 40.20489502 C-2.60523212 51.40784818 -2.60523212 51.40784818 -5 55 C-5.42766892 42.91439304 -4.26716132 31.52193669 -2.38916016 19.59228516 C-1.77004032 15.46818575 -1.28451433 11.33063887 -0.8125 7.1875 C-0.72887207 6.45789063 -0.64524414 5.72828125 -0.55908203 4.9765625 C-0.37042101 3.31796838 -0.18481948 1.65902659 0 0 Z " fill="#3A5262" transform="translate(472,446)"/>
<path d="M0 0 C0.33 0 0.66 0 1 0 C4.1962071 13.75647538 1.35991821 29.12413242 0 43 C-1.65 42.34 -3.3 41.68 -5 41 C-4.50911232 31.69006133 -3.54973011 22.44863487 -2.5 13.1875 C-2.36940186 12.01203613 -2.23880371 10.83657227 -2.10424805 9.62548828 C-1.97703369 8.52575684 -1.84981934 7.42602539 -1.71875 6.29296875 C-1.54762695 4.80059692 -1.54762695 4.80059692 -1.37304688 3.27807617 C-1 1 -1 1 0 0 Z " fill="#354E5D" transform="translate(561,619)"/>
<path d="M0 0 C0.66 0 1.32 0 2 0 C3.14400162 5.15057486 3.19198406 10.05583091 3.1875 15.3125 C3.18669434 16.28856201 3.18588867 17.26462402 3.18505859 18.27026367 C3.08923014 29.73679616 1.78577071 40.85691717 -1 52 C-1.33 52 -1.66 52 -2 52 C-2.18381566 40.86511109 -1.60586761 29.80151108 -1 18.6875 C-0.90333289 16.86785514 -0.80697652 15.04819374 -0.7109375 13.22851562 C-0.47753493 8.81881188 -0.23994738 4.40935226 0 0 Z " fill="#2A1F10" transform="translate(543,757)"/>
<path d="M0 0 C1.27829669 3.83489008 0.60922775 6.08593594 -0.14453125 10.0546875 C-0.27437912 10.75208038 -0.40422699 11.44947327 -0.53800964 12.16799927 C-0.95579716 14.40505741 -1.38368131 16.64003265 -1.8125 18.875 C-2.36384508 21.78847093 -2.91104428 24.70270816 -3.45703125 27.6171875 C-3.59037872 28.3255072 -3.7237262 29.0338269 -3.8611145 29.76361084 C-5.0536611 36.15498287 -6.06586685 42.56548345 -7 49 C-7.33 49 -7.66 49 -8 49 C-8.63486031 31.49983136 -7.4404207 16.10771929 0 0 Z " fill="#26282A" transform="translate(467,536)"/>
<path d="M0 0 C1.27282827 3.81848481 0.5000634 6.72302369 -0.25 10.5625 C-0.53349559 12.08315774 -0.8160129 13.60399812 -1.09765625 15.125 C-1.32026123 16.31416016 -1.32026123 16.31416016 -1.54736328 17.52734375 C-2.3107138 21.69736213 -2.99826277 25.87970206 -3.6875 30.0625 C-3.81866211 30.85406494 -3.94982422 31.64562988 -4.08496094 32.46118164 C-4.39077219 34.30732238 -4.69551264 36.15364045 -5 38 C-7.50580109 35.49419891 -7.30842085 33.86791844 -7.37963867 30.4387207 C-7.37810791 29.69581787 -7.37657715 28.95291504 -7.375 28.1875 C-7.37411377 27.42719482 -7.37322754 26.66688965 -7.37231445 25.88354492 C-7.17706921 16.42951268 -4.31591212 8.3473945 0 0 Z " fill="#3A5362" transform="translate(503,391)"/>
<path d="M0 0 C0.33 0 0.66 0 1 0 C1.53937071 11.26685478 0.30183889 21.43858926 -6 31 C-7.58977418 27.82045164 -6.76267616 24.55812072 -6.375 21.125 C-6.28943848 20.36646729 -6.20387695 19.60793457 -6.11572266 18.82641602 C-5.22486574 12.02592128 -3.0929072 6.12678945 0 0 Z " fill="#3F5867" transform="translate(486,462)"/>
<path d="M0 0 C0.33 0 0.66 0 1 0 C0.40103029 12.10331892 -1.26961162 24.01588032 -3 36 C-5.95769404 33.04230596 -5.42435851 29.84290797 -5.4375 25.875 C-5.44136719 25.07980957 -5.44523438 24.28461914 -5.44921875 23.46533203 C-5.29010403 15.09689233 -2.96009725 7.7596835 0 0 Z " fill="#2D2111" transform="translate(537,713)"/>
<path d="M0 0 C0.33 0 0.66 0 1 0 C1.47172009 7.46016588 0.65003131 14.68690817 -0.375 22.0625 C-0.50108643 23.00311279 -0.62717285 23.94372559 -0.75708008 24.9128418 C-0.88622803 25.79883057 -1.01537598 26.68481934 -1.1484375 27.59765625 C-1.26364746 28.39695557 -1.37885742 29.19625488 -1.49755859 30.01977539 C-2 32 -2 32 -4 34 C-4.39389482 23.23354159 -3.18260948 12.68572134 -2 2 C-1.34 2 -0.68 2 0 2 C0 1.34 0 0.68 0 0 Z " fill="#22190D" transform="translate(555,687)"/>
<path d="M0 0 C0.33 0 0.66 0 1 0 C3.30027142 10.35122141 1.98962768 19.96339278 -1 30 C-1.33 30 -1.66 30 -2 30 C-2.05834395 26.12506384 -2.09371201 22.25024164 -2.125 18.375 C-2.14175781 17.28058594 -2.15851562 16.18617188 -2.17578125 15.05859375 C-2.23662606 5.01920021 -2.23662606 5.01920021 0 0 Z " fill="#17120C" transform="translate(526,780)"/>
<path d="M0 0 C2.37753415 2.37753415 2.32049854 2.9337631 2.375 6.1875 C2.26931915 13.38436578 0.04407106 20.15601209 -2 27 C-2.33 27 -2.66 27 -3 27 C-3.17159443 20.82260045 -2.53731344 15.08370312 -1.5 9 C-1.35691406 8.12988281 -1.21382812 7.25976562 -1.06640625 6.36328125 C-0.71661973 4.24124305 -0.3591135 2.12047972 0 0 Z " fill="#392A14" transform="translate(537,836)"/>
<path d="M0 0 C0.66 0 1.32 0 2 0 C2.79706768 3.49992696 3.11863027 6.7142231 3.09765625 10.30078125 C3.09282227 11.76547852 3.09282227 11.76547852 3.08789062 13.25976562 C3.07951172 14.26716797 3.07113281 15.27457031 3.0625 16.3125 C3.05798828 17.33923828 3.05347656 18.36597656 3.04882812 19.42382812 C3.03708184 21.94927882 3.02065565 24.47460905 3 27 C2.67 27 2.34 27 2 27 C1.67 24.03 1.34 21.06 1 18 C0.67 18 0.34 18 0 18 C0 12.06 0 6.12 0 0 Z " fill="#4B3718" transform="translate(543,757)"/>
<path d="M0 0 C1.32963842 3.98891525 0.38405007 7.18462836 -0.4375 11.1875 C-0.65889648 12.31188477 -0.65889648 12.31188477 -0.88476562 13.45898438 C-1.24972791 15.30734174 -1.62397411 17.15386161 -2 19 C-2.66 19 -3.32 19 -4 19 C-4.66 19.66 -5.32 20.32 -6 21 C-5.52162972 14.7811864 -4.56630899 4.56630899 0 0 Z " fill="#373B3F" transform="translate(467,536)"/>
<path d="M0 0 C0.33 0 0.66 0 1 0 C1 2.31 1 4.62 1 7 C1.66 7 2.32 7 3 7 C2.67 11.29 2.34 15.58 2 20 C0 18 0 18 -0.22705078 16.12060547 C-0.21657715 15.37697754 -0.20610352 14.63334961 -0.1953125 13.8671875 C-0.18886719 13.06152344 -0.18242188 12.25585938 -0.17578125 11.42578125 C-0.15064453 10.16314453 -0.15064453 10.16314453 -0.125 8.875 C-0.11597656 8.02550781 -0.10695313 7.17601562 -0.09765625 6.30078125 C-0.07405647 4.20040116 -0.03818483 2.10016556 0 0 Z " fill="#4C3718" transform="translate(532,729)"/>
<path d="M0 0 C0.33 0 0.66 0 1 0 C1.28100502 7.16562789 0.20443195 13.94546999 -1 21 C-1.33 21 -1.66 21 -2 21 C-2.3690205 6.21867882 -2.3690205 6.21867882 0 0 Z " fill="#181718" transform="translate(461,564)"/>
<path d="M0 0 C0.33 0 0.66 0 1 0 C2.32594359 5.96674616 2.0884587 11.92583615 2 18 C1.67 18 1.34 18 1 18 C0.67 14.7 0.34 11.4 0 8 C-0.33 9.98 -0.66 11.96 -1 14 C-1.33 14 -1.66 14 -2 14 C-2.1799928 8.78020872 -1.97094808 4.92737019 0 0 Z " fill="#4D3818" transform="translate(526,780)"/>
<path d="M0 0 C0.33 0 0.66 0 1 0 C2.05619003 4.28297531 2.11702092 8.42985646 2.0625 12.8125 C2.05798828 13.50537109 2.05347656 14.19824219 2.04882812 14.91210938 C2.03713156 16.60811068 2.01919924 18.30406703 2 20 C1.67 20 1.34 20 1 20 C0.67 16.37 0.34 12.74 0 9 C-0.33 9 -0.66 9 -1 9 C-1.09765625 2.84765625 -1.09765625 2.84765625 -1 1 C-0.67 0.67 -0.34 0.34 0 0 Z " fill="#48606F" transform="translate(561,619)"/>
<path d="M0 0 C0.33 0 0.66 0 1 0 C1 3.63 1 7.26 1 11 C0.01 10.34 -0.98 9.68 -2 9 C-2.1875 5.375 -2.1875 5.375 -2 2 C-1.34 2 -0.68 2 0 2 C0 1.34 0 0.68 0 0 Z " fill="#2C200F" transform="translate(555,687)"/>
<path d="M0 0 C1.485 0.99 1.485 0.99 3 2 C2.67 3.65 2.34 5.3 2 7 C1.01 6.67 0.02 6.34 -1 6 C-1.042721 4.33388095 -1.04063832 2.66617115 -1 1 C-0.67 0.67 -0.34 0.34 0 0 Z " fill="#B4C8D7" transform="translate(435,633)"/>
<path d="M0 0 C1.32 0 2.64 0 4 0 C3.67 1.65 3.34 3.3 3 5 C2.01 5 1.02 5 0 5 C0 3.35 0 1.7 0 0 Z " fill="#D69C43" transform="translate(446,718)"/>
</svg>
